# xmcd CD database file
#
# Track frame offsets:
#	150
#	9373
#	14398
#	51738
#	80311
#	104594
#	126344
#	150572
#	174049
#	200747
#	220925
#	280330
#	325402
#
# Disc length: 4700 seconds
#
# Revision: 0
# Processed by: cddbd v1.5.1PL0 Copyright (c) Steve Scherf et al.
# Submitted via: CDex 1.51
#
DISCID=b6125a0d
DTITLE=Miles Davis Quintet - Prestige Sessions Vol 2
DYEAR=1956
DGENRE=Jazz
TTITLE0=The Theme (take 1)
TTITLE1=The Theme (take 2)
TTITLE2=If I Were A Bell
TTITLE3=Well, You Needn't
TTITLE4='Round Midnight
TTITLE5=Half Nelson
TTITLE6=You're My Everything
TTITLE7=I Could Write A Book
TTITLE8=Oleo
TTITLE9=Airegin
TTITLE10=Tune Up - When The Lights Are Low
TTITLE11=Blues By Five
TTITLE12=My Funny Valentine
EXTD=YEAR: 1956
EXTT0=
EXTT1=
EXTT2=
EXTT3=
EXTT4=
EXTT5=
EXTT6=
EXTT7=
EXTT8=
EXTT9=
EXTT10=
EXTT11=
EXTT12=
PLAYORDER=
